inDegrees=no
num_controls=7
num_derivatives=13
num_iterations=106
num_multipliers=7
num_parameters=0
num_slacks=7
num_states=26
objective=4.250366
objective_accelerations=0.570490
objective_balance=0.036194
objective_effort=0.643565
objective_height=2.926912
objective_ligament=0.073205
solver_duration=1092.209169
status=Solve_Succeeded
success=true
DataType=double
version=3
OpenSimVersion=4.4-2022-07-23-0e9fedc
endheader
time	/jointset/ground_pelvis/pelvis_tilt/value	/jointset/ground_pelvis/pelvis_tx/value	/jointset/ground_pelvis/pelvis_ty/value	/jointset/hip_l/hip_flexion_l/value	/jointset/hip_l/hip_adduction_l/value	/jointset/hip_l/hip_rotation_l/value	/jointset/back/lumbar_extension/value	/jointset/patellofemoral_l/patellar_flexion_l/value	/jointset/knee_l/knee_flexion_l/value	/jointset/knee_l/knee_adduction_l/value	/jointset/knee_l/knee_rotation_l/value	/jointset/ankle_l/ankle_angle_l/value	/jointset/subtalar_l/subtalar_angle_l/value	/jointset/ground_pelvis/pelvis_tilt/speed	/jointset/ground_pelvis/pelvis_tx/speed	/jointset/ground_pelvis/pelvis_ty/speed	/jointset/hip_l/hip_flexion_l/speed	/jointset/hip_l/hip_adduction_l/speed	/jointset/hip_l/hip_rotation_l/speed	/jointset/back/lumbar_extension/speed	/jointset/patellofemoral_l/patellar_flexion_l/speed	/jointset/knee_l/knee_flexion_l/speed	/jointset/knee_l/knee_adduction_l/speed	/jointset/knee_l/knee_rotation_l/speed	/jointset/ankle_l/ankle_angle_l/speed	/jointset/subtalar_l/subtalar_angle_l/speed	/forceset/tau_hip_flexion_l	/forceset/tau_hip_adduction_l	/forceset/tau_hip_rotation_l	/forceset/tau_knee_flexion_l	/forceset/tau_ankle_angle_l	/forceset/tau_subtalar_angle_l	/forceset/tau_lumbar_extension	lambda_cid13_p0	lambda_cid13_p1	lambda_cid13_p2	lambda_cid13_p3	lambda_cid13_p4	lambda_cid13_p5	lambda_cid14_p0	/jointset/ground_pelvis/pelvis_tilt/accel	/jointset/ground_pelvis/pelvis_tx/accel	/jointset/ground_pelvis/pelvis_ty/accel	/jointset/hip_l/hip_flexion_l/accel	/jointset/hip_l/hip_adduction_l/accel	/jointset/hip_l/hip_rotation_l/accel	/jointset/back/lumbar_extension/accel	/jointset/patellofemoral_l/patellar_flexion_l/accel	/jointset/knee_l/knee_flexion_l/accel	/jointset/knee_l/knee_adduction_l/accel	/jointset/knee_l/knee_rotation_l/accel	/jointset/ankle_l/ankle_angle_l/accel	/jointset/subtalar_l/subtalar_angle_l/accel	gamma_cid13_p0	gamma_cid13_p1	gamma_cid13_p2	gamma_cid13_p3	gamma_cid13_p4	gamma_cid13_p5	gamma_cid14_p0
1.5	-0.03193818794141591	-0.03216029871415277	0.777524183242541	0.9713015227389205	-0.3203951399886054	-0.06232416758416683	-0.8181234805203508	1.104225664366369	1.104225664365995	-0.03444846821040461	-0.1745232587351791	0.2484574365320295	0.06389566779769094	0.3741106932589667	0.2240140169277886	0.767343238243141	-2.781426597650978	0.04373346633121591	-0.7648188409069032	0.7953310582768545	-2.831683057419693	-2.831683057419965	-0.307039862449955	0.0001431837366227337	-0.6049882202046327	-0.1926556026105744	-0.2300980513394242	0.01431455741720171	-0.008737618892406014	-0.2906380772344277	0.06942522165265749	0.04087658843455979	0.3010778685242695	-18.16869229948103	-14.80604508169138	2.174092661601628	-13.02363658862474	-654.2255137095947	-71.70009275263916	-3.061978611520408	0.6098772678693918	1.005361696186511	-0.9855693951030172	-1.07533649860712	0.6273020591636376	-0.5813604073964784	2.397793590871149	-1.822466042410708	-1.822466042410785	-0.156506488787051	0.05626733229221302	-1.40587826397835	0.3764158174312128	6.50444639254292e-07	2.549240686064323e-06	-2.694287776148613e-06	8.074744653045727e-08	7.236171546675905e-07	3.929450918030504e-07	6.562910204374545e-07
1.51	-0.02816694398875363	-0.02986996000170574	0.7851466863236926	0.9434355742880539	-0.3199282728998777	-0.07000081910190244	-0.8100516671500786	1.075820914688794	1.075820914688594	-0.0375301583282556	-0.1745219658996816	0.2423382344475737	0.061985879625112	0.3800448669752882	0.2340412408092477	0.7569810394970609	-2.791427900290561	0.04963903285400446	-0.7704391363122921	0.8189558864981525	-2.848877221335333	-2.8488772213357	-0.3093318923375438	0.0001285033563104951	-0.6186855190609952	-0.189242378071434	-0.2210865292522328	0.01389267675690748	-0.008841875433154116	-0.2838359179898188	0.0704895045607415	0.04102294657341095	0.2921078243324883	-17.33641342554758	-15.18498878228799	2.428291536001367	-13.30786983490676	-646.2114098064191	-71.6753930842078	-3.879543910966934	0.5712583758150312	0.9995508634998661	-1.087830328888564	-0.9121811524973727	0.5721627465782999	-0.5408073697629794	2.333468047173218	-1.609582228028112	-1.609582228042192	-0.2700980114981259	-0.02885809088546264	-1.326507811358295	0.3325552035617706	6.896295957764164e-07	2.874007826924427e-06	-2.702292514081156e-06	9.624141724893671e-08	7.923758061402894e-07	6.313522297578564e-07	6.82420380731602e-07
1.52	-0.02433914410845739	-0.02747971942456806	0.7926603103744768	0.9154796820096227	-0.3194023543863803	-0.07773136222619079	-0.8017458773757098	1.047255885239691	1.047255885239647	-0.04063567809956879	-0.1745205243415406	0.2360870889515791	0.06011197958420582	0.3854218787836074	0.2439943898659172	0.7455674321697263	-2.799415363164684	0.05554375128644959	-0.7755971622237848	0.8421263390959526	-2.863739011726473	-2.863739011726934	-0.3118057931352484	0.0001729282683040151	-0.631376902513093	-0.1854779762760358	-0.2120750071650479	0.01347079609670955	-0.008946131974346877	-0.2770337587452238	0.0715537874688504	0.04116930471240415	0.2831377801406884	-16.49835107973289	-15.57649402441018	2.697687083685015	-13.66185430035602	-638.120464676596	-71.75050162929928	-4.790058609822997	0.4984448862700893	0.9905467312277336	-1.195851111354045	-0.6725685455148781	0.6271324410951343	-0.4889065086171831	2.306918466172136	-1.355991337510406	-1.355991337510405	-0.1928806708100234	0.06808839075339312	-1.204695183126496	0.4466512686824315	6.763820485237128e-07	3.229392400288969e-06	-2.373165907007621e-06	1.521518631926272e-07	8.156788111897119e-07	9.054476303587916e-07	6.682710964226014e-07
1.53	-0.0204603853925081	-0.02499052742356659	0.8000546388257366	0.8874541471375414	-0.3188171562545312	-0.08551324822475731	-0.7932109891251445	1.018553907624415	1.01855390762441	-0.04376483789312983	-0.1745190603942821	0.2297140325801762	0.05827778705364092	0.3902345305797845	0.2538097732048977	0.7331310039624778	-2.805331210666275	0.06149975256927372	-0.780761769464256	0.8647410519049303	-2.876251428151347	-2.876251428151833	-0.3140067731910245	0.0001002599359872983	-0.6430718044274625	-0.1813011068494224	-0.2032452376101042	0.01338151645549781	-0.009088417339205238	-0.2700008510252672	0.07172905738867855	0.04090132014434492	0.2741436925020581	-15.99702437044452	-15.70918024121994	2.903076422051132	-13.49727232020344	-630.2947305762812	-71.37489670291451	-5.792502228414156	0.4584073000199926	0.9719593484994925	-1.29247133281233	-0.4969941229191176	0.5802583013813448	-0.5268941339923905	2.222208822793952	-1.138220485806724	-1.138220485810445	-0.2301901176808453	-0.04808797743197413	-1.127327123102537	0.4116616329879809	6.074249660102552e-07	3.617307995689477e-06	-1.68583724586513e-06	2.510048140631041e-07	7.906851919144035e-07	1.217461810021239e-06	6.113257522227563e-07
1.54	-0.01653635376384249	-0.0224041965465206	0.8073196164634427	0.8593802735363609	-0.3181723132439596	-0.09334611155614189	-0.7844532615195823	0.9897389351067182	0.9897389351067567	-0.04691530417619421	-0.1745189518367941	0.2232289393041311	0.05648705458800961	0.3944764613250391	0.2634221650748193	0.7196972694590047	-2.809083108985378	0.06747272703229085	-0.7857926287939314	0.8866942100951754	-2.886337992209461	-2.886337992209973	-0.3160670910355626	-9.814968462908998e-05	-0.6537842834422599	-0.1767859632893155	-0.194415468055155	0.01329223681439629	-0.00923070270417457	-0.2629679433053133	0.07190432730853195	0.04063333557643482	0.2651496048634135	-15.48818346718135	-15.85446192317647	3.123358344241901	-13.40471158914763	-622.3785812032027	-71.07983443360519	-6.882650901275235	0.3843006760867563	0.9499484374150652	-1.395312370599111	-0.2397787090172058	0.6305270771339108	-0.4621569264579445	2.174607542426258	-0.8708208641585177	-0.8708208641584174	-0.1647482285622122	0.04294013309354285	-1.00821060321327	0.5143060953808167	6.979180872803804e-07	3.14794506823026e-06	-2.488355312993922e-06	1.008724851084791e-07	9.074643657614088e-07	1.182177687381331e-06	6.471843363084278e-07
1.55	-0.0125727208629611	-0.01972276928212204	0.8144454289360411	0.8312794248311525	-0.3174681228482925	-0.1012235871255896	-0.7754796702291256	0.9608353632031671	0.9608353632031703	-0.05009041359696221	-0.174518790923716	0.2166417107749905	0.05474251685018484	0.3981456169998791	0.2728277691215723	0.7053106856205308	-2.810716206625446	0.07335890898406081	-0.7897207191281604	0.9078888584386956	-2.893944439645057	-2.893944439645511	-0.3188988717031314	9.147560576799123e-05	-0.6634709952075483	-0.1720663360861137	-0.1851276197593306	0.01241821456666625	-0.009360075881146995	-0.2571992183259965	0.0733098046505925	0.04031130810343654	0.2559026665578465	-14.62072229260335	-16.0315005075482	3.340059438731638	-13.54717446148643	-614.9727261771718	-70.98531571691034	-8.05514733920862	0.342649604976708	0.9304227999729603	-1.483243663669971	-0.06937573191929013	0.5675167069477394	-0.3599651169686546	2.071615048078678	-0.6409382129114822	-0.6409382129026808	-0.3339162387110675	-0.0001007206046929978	-0.9202839898875977	0.4596872178660085	9.721255737794061e-07	1.690848190519678e-06	-5.007435914869967e-06	-3.361341879924433e-07	1.187590453423245e-06	7.467455207843827e-07	7.899691855926236e-07
